<svg width="37" height="34" viewBox="0 0 37 34" fill="none" xmlns="http://www.w3.org/2000/svg">
<path d="M0.834344 17.9019L5.01425 15.0262C5.98291 14.36 7.40667 14.4843 8.19403 15.3036C8.98176 16.1233 8.83486 17.328 7.8662 17.9943L5.84341 19.386L20.5299 29.8572C21.4985 30.5234 21.6454 31.7282 20.8577 32.5475C20.4111 33.0128 19.7595 33.2539 19.1028 33.2539C18.6018 33.2539 18.0971 33.1136 17.6783 32.8252L0.834344 20.87C0.306723 20.5068 0 19.9617 0 19.386C0 18.8102 0.306723 18.2654 0.834344 17.9019V17.9019Z" fill="white"/>
<path d="M19.3953 0.33084C20.5952 0.338981 21.5605 1.16867 21.5509 2.18432L21.364 31.4295C21.3544 32.4452 20.3736 33.2617 19.1736 33.2536C18.8695 33.2517 18.5809 33.1969 18.3189 33.0998C17.5475 32.8134 17.0106 32.1587 17.0176 31.4001L17.2049 2.1552C17.2145 1.13955 18.195 0.3227 19.3953 0.33084V0.33084Z" fill="white"/>
<path d="M28.9345 20.448L30.4781 19.386L24.9799 15.6029C24.0112 14.9367 23.8647 13.7319 24.6521 12.9126C25.4394 12.0926 26.8632 11.9686 27.8319 12.6349L35.4868 17.9019C36.0148 18.2654 36.3212 18.8102 36.3212 19.386C36.3212 19.9617 36.0148 20.5068 35.4868 20.87L31.7864 23.416C31.3672 23.7044 30.8629 23.8446 30.3619 23.8446C29.7048 23.8446 29.0532 23.6036 28.6067 23.1386C27.8193 22.319 27.9662 21.1145 28.9345 20.448Z" fill="#7B4AE2"/>
</svg>
