<svg width="52" height="52" viewBox="0 0 52 52" fill="none" xmlns="http://www.w3.org/2000/svg">
<g clip-path="url(#clip0_107_548)">
<g clip-path="url(#clip1_107_548)">
<path fill-rule="evenodd" clip-rule="evenodd" d="M17.401 0C12.617 0 8.73438 3.88267 8.73438 8.66667C8.73438 13.4507 12.617 17.3333 17.401 17.3333C12.617 17.3333 8.73438 21.216 8.73438 26C8.73438 30.784 12.617 34.6667 17.401 34.6667C12.617 34.6667 8.73438 38.5493 8.73438 43.3333C8.73438 48.1173 12.617 52 17.401 52C22.185 52 26.0677 48.1173 26.0677 43.3333L26.0677 26C26.0677 30.784 29.9504 34.6667 34.7344 34.6667C39.5184 34.6667 43.401 30.784 43.401 26C43.401 21.216 39.5184 17.3333 34.7344 17.3333C39.5184 17.3333 43.401 13.4507 43.401 8.66667C43.401 3.88267 39.5184 0 34.7344 0H17.401ZM34.7344 17.3333H26.0677L26.0677 26C26.0677 21.216 29.9504 17.3333 34.7344 17.3333Z" fill="#7B4AE2" fill-opacity="0.5"/>
</g>
</g>
<defs>
<clipPath id="clip0_107_548">
<rect width="52" height="52" fill="white"/>
</clipPath>
<clipPath id="clip1_107_548">
<rect width="52" height="52" fill="white"/>
</clipPath>
</defs>
</svg>
