<svg width="34" height="34" viewBox="0 0 34 34" fill="none" xmlns="http://www.w3.org/2000/svg">
<g clip-path="url(#clip0_107_469)">
<path d="M27.9548 11.02C27.6021 10.8836 27.2366 10.7545 26.8603 10.6324C26.9222 10.3487 26.9789 10.0686 27.0294 9.79334C27.8579 5.27313 27.3162 1.63161 25.4664 0.432673C23.6927 -0.716953 20.792 0.481717 17.8623 3.34731C17.5806 3.62287 17.2981 3.91461 17.0157 4.22037C16.8276 4.01807 16.6397 3.82258 16.4524 3.63559C13.382 0.571504 10.3045 -0.719742 8.45652 0.482669C6.6845 1.63563 6.15974 5.059 6.90552 9.34284C6.97754 9.75661 7.06172 10.1792 7.15692 10.6088C6.72136 10.7477 6.30087 10.8959 5.89854 11.0535C2.2989 12.4641 0 14.6747 0 16.9678C0 19.3361 2.46787 21.7115 6.21717 23.1519C6.51305 23.2656 6.82007 23.373 7.13646 23.4751C7.03376 23.9397 6.94444 24.395 6.86945 24.8392C6.15835 29.0486 6.71367 32.3911 8.48097 33.5368C10.3064 34.72 13.37 33.5038 16.3532 30.5729C16.589 30.3413 16.8256 30.0956 17.0627 29.838C17.37 30.1706 17.6767 30.4853 17.9819 30.7805C20.8714 33.5753 23.7254 34.7039 25.491 33.555C27.3146 32.3684 27.9073 28.7778 27.1379 24.4092C27.0791 24.0755 27.0107 23.7347 26.9339 23.3878C27.1491 23.3163 27.3603 23.2425 27.5662 23.1658C31.464 21.7143 34 19.3677 34 16.9678C34 14.6664 31.627 12.4409 27.9548 11.02ZM27.1094 21.6162C26.9235 21.6854 26.7328 21.7522 26.5384 21.817C26.1081 20.286 25.5273 18.6579 24.8166 16.9758C25.4948 15.3337 26.0531 13.7265 26.4714 12.2053C26.8192 12.3184 27.1568 12.4377 27.482 12.5636C30.6283 13.781 32.5475 15.5809 32.5475 16.9678C32.5475 18.4451 30.4749 20.3628 27.1094 21.6162ZM25.713 24.7262C26.0532 26.658 26.1018 28.4045 25.8765 29.7698C25.674 30.9966 25.2667 31.8146 24.7632 32.1422C23.6917 32.8393 21.4003 31.9332 18.9291 29.543C18.6458 29.269 18.3605 28.9765 18.0742 28.6668C19.0322 27.4892 19.9897 26.1201 20.9242 24.5997C22.5679 24.4357 24.1207 24.1677 25.529 23.8018C25.5983 24.1163 25.6599 24.4247 25.713 24.7262ZM11.5914 32.0217C10.5445 32.4373 9.71072 32.4492 9.20672 32.1225C8.13425 31.4273 7.6884 28.7436 8.29656 25.1436C8.36622 24.7313 8.44913 24.3078 8.54469 23.875C9.93749 24.2211 11.479 24.4702 13.1266 24.6203C14.0673 26.1082 15.0525 27.4757 16.0452 28.6732C15.8283 28.9085 15.6123 29.1326 15.3974 29.3437C14.0783 30.6397 12.7564 31.5592 11.5914 32.0217ZM6.68693 21.6071C5.02905 20.9702 3.65992 20.1425 2.72144 19.2392C1.87816 18.4275 1.45241 17.6217 1.45241 16.9678C1.45241 15.5763 3.29819 13.8014 6.37664 12.5951C6.75017 12.4487 7.14119 12.3107 7.54697 12.1812C7.97242 13.7367 8.53053 15.363 9.20405 17.0075C8.52182 18.6765 7.95578 20.3287 7.52615 21.9025C7.23687 21.809 6.9566 21.7107 6.68693 21.6071ZM8.33094 9.02933C7.69197 5.35904 8.11634 2.59031 9.1842 1.89554C10.3217 1.1554 12.8369 2.21068 15.4879 4.85636C15.6574 5.02546 15.8275 5.20246 15.9981 5.38557C15.0102 6.57778 14.0341 7.93507 13.1017 9.41412C11.5026 9.58071 9.97199 9.8483 8.56467 10.2066C8.47619 9.80661 8.39781 9.41358 8.33094 9.02933ZM22.997 13.0996C22.6606 12.4465 22.3152 11.8088 21.9631 11.1885C23.0479 11.3427 24.0873 11.5473 25.0633 11.7977C24.7703 12.8532 24.405 13.9569 23.9751 15.0882C23.6667 14.4301 23.3405 13.7666 22.997 13.0996ZM17.0162 6.55227C17.6862 7.36805 18.3571 8.27885 19.017 9.26706C18.352 9.23176 17.6788 9.21339 17 9.21339C16.3276 9.21339 15.6594 9.23135 14.9985 9.26604C15.6591 8.28701 16.3358 7.37743 17.0162 6.55227ZM10.9971 13.1109C10.6611 13.7659 10.3409 14.4259 10.0373 15.087C9.61438 13.9596 9.25253 12.8509 8.95695 11.7804C9.92702 11.5364 10.9615 11.3369 12.0394 11.1857C11.6823 11.8117 11.3341 12.4541 10.9971 13.1108V13.1109ZM12.0704 22.8664C10.9568 22.7268 9.90675 22.5375 8.93692 22.3003C9.23722 21.2106 9.60705 20.0783 10.039 18.9265C10.3433 19.5872 10.6648 20.2475 11.0029 20.9039H11.0029C11.3474 21.5726 11.7042 22.2276 12.0704 22.8664ZM17.0564 27.4984C16.368 26.6636 15.6813 25.7402 15.0107 24.7468C15.6617 24.7756 16.3254 24.7902 17 24.7902C17.693 24.7902 18.3781 24.7727 19.0524 24.739C18.3903 25.7502 17.7218 26.675 17.0564 27.4984ZM23.989 18.8678C24.4434 20.032 24.8265 21.1585 25.1307 22.2295C24.1449 22.4823 23.0805 22.6859 21.9591 22.8372C22.312 22.2085 22.6605 21.5599 23.0028 20.8926C23.3492 20.2176 23.678 19.5415 23.989 18.8678ZM21.7447 20.0771C21.2132 21.1128 20.6675 22.1016 20.1136 23.0349C19.1047 23.116 18.0624 23.1577 17 23.1577C15.9419 23.1577 14.9127 23.1208 13.9217 23.0485C13.3454 22.1029 12.7879 21.1113 12.2598 20.086H12.2599C11.7332 19.0635 11.2485 18.0323 10.8092 17.007C11.2483 15.9793 11.7318 14.947 12.2555 13.9263L12.2554 13.9265C12.7805 12.9031 13.3331 11.9163 13.904 10.9766C14.9152 10.8907 15.952 10.8459 16.9999 10.8459H17C18.0526 10.8459 19.0908 10.8911 20.1017 10.9777C20.6639 11.9105 21.2128 12.8942 21.7399 13.9177C22.273 14.9527 22.7627 15.9781 23.2056 16.9838C22.7641 18.0068 22.2754 19.0425 21.7447 20.0771ZM24.7409 1.84697C25.8795 2.58493 26.3222 5.56113 25.6069 9.46385C25.5613 9.71287 25.5099 9.96652 25.4541 10.2236C24.0435 9.85776 22.5118 9.58554 20.908 9.41644C19.9738 7.92113 19.0057 6.56172 18.0339 5.38482C18.2952 5.10233 18.5561 4.83296 18.8159 4.57877C21.326 2.12354 23.672 1.15417 24.7409 1.84697ZM17 13.5554C18.6768 13.5554 20.0361 15.0831 20.0361 16.9678C20.0361 18.8524 18.6768 20.3802 17 20.3802C15.3232 20.3802 13.9639 18.8524 13.9639 16.9678C13.9639 15.0831 15.3232 13.5554 17 13.5554Z" fill="#7B4AE2" fill-opacity="0.5"/>
</g>
<defs>
<clipPath id="clip0_107_469">
<rect width="34" height="34" fill="white"/>
</clipPath>
</defs>
</svg>
