<svg width="53" height="53" viewBox="0 0 53 53" fill="none" xmlns="http://www.w3.org/2000/svg">
<rect x="0.491699" y="0.261398" width="52" height="52" rx="26" fill="#090E16"/>
<path d="M24.4987 34.7218C24.4768 34.7656 24.4549 34.8006 24.4987 34.7218ZM42.6629 28.3786C41.1965 28.3781 39.7496 28.7149 38.4341 29.3629C38.0039 28.4953 37.5592 27.737 37.4863 27.1683C37.3988 26.5048 37.304 26.1111 37.4061 25.3237C37.5082 24.5362 37.9675 23.4207 37.9602 23.3405C37.9529 23.2603 37.8581 22.8593 36.9176 22.852C35.977 22.8447 35.1677 23.0343 35.0737 23.2822C34.9075 23.7352 34.7783 24.2009 34.6872 24.6747C34.5195 25.5278 32.8069 28.5755 31.8372 30.1649C31.5163 29.5452 31.2466 28.9984 31.1882 28.5609C31.1008 27.8974 31.006 27.5037 31.108 26.7162C31.2101 25.9288 31.6695 24.8133 31.6622 24.7331C31.6549 24.6529 31.5601 24.2519 30.6203 24.2446C29.6805 24.2373 28.8704 24.4269 28.7756 24.6747C28.6808 24.9226 28.5788 25.5059 28.3892 26.0673C28.1996 26.6288 25.9183 31.7033 25.3211 33.023C25.0149 33.6938 24.7524 34.2333 24.5629 34.5979C24.5337 34.6562 24.5118 34.6927 24.4972 34.7218C24.5191 34.6854 24.5337 34.6489 24.5337 34.6635C24.3733 34.977 24.2785 35.152 24.2785 35.152V35.1593C24.1546 35.3926 24.016 35.6041 23.9504 35.6041C23.9067 35.6041 23.8119 34.9916 23.9723 34.1531C24.315 32.3887 25.1243 29.6473 25.117 29.5525C25.1097 29.5014 25.2701 29.0275 24.5847 28.7723C23.9212 28.5317 23.6806 28.9327 23.6223 28.9327C23.564 28.9327 23.5202 29.0786 23.5202 29.0786C23.5202 29.0786 24.2566 25.9871 22.1065 25.9871C20.7649 25.9871 18.8984 27.4599 17.9812 28.7942C17.4052 29.1077 16.1584 29.7858 14.846 30.5076C14.343 30.7847 13.8253 31.069 13.3368 31.3388C13.3003 31.3023 13.2712 31.2659 13.2347 31.2294C10.6252 28.4442 5.8073 26.4756 6.01145 22.7353C6.08436 21.3719 6.55828 17.792 15.2762 13.4465C22.4215 9.88845 28.134 10.8655 29.1176 13.0382C30.5321 16.1369 26.0634 21.9041 18.6432 22.7353C15.815 23.0488 14.3284 21.9552 13.9565 21.5469C13.5701 21.1167 13.5118 21.0948 13.366 21.175C13.1253 21.3063 13.2785 21.6854 13.366 21.9114C13.5847 22.4874 14.4961 23.5082 16.0483 24.0186C17.4118 24.4633 20.7277 24.7112 24.7371 23.1582C29.2415 21.4229 32.7478 16.5889 31.7198 12.5424C30.6728 8.43024 23.8542 7.08139 17.4067 9.37079C13.565 10.7342 9.41055 12.8778 6.42193 15.6703C2.87191 18.995 2.30394 21.8896 2.53725 23.0999C3.3677 27.3943 9.2866 30.1941 11.6555 32.2648C11.5388 32.3304 11.4294 32.3887 11.3274 32.447C10.1397 33.0376 5.62721 35.3999 4.49782 37.8935C3.22188 40.7224 4.70926 42.7493 5.68554 43.0264C8.73248 43.8721 11.8523 42.3483 13.5285 39.8475C15.2048 37.3466 15.0013 34.0802 14.2285 32.5929C14.2212 32.571 14.2066 32.5564 14.1993 32.5345C14.5055 32.3522 14.8191 32.17 15.1326 31.9877C15.737 31.6304 16.3276 31.3023 16.8453 31.018C16.5536 31.8054 16.3422 32.7533 16.2328 34.124C16.1016 35.728 16.7651 37.806 17.6254 38.6226C18.0045 38.9798 18.4631 38.9871 18.7475 38.9871C19.7537 38.9871 20.2057 38.1559 20.7081 37.1644C21.3278 35.954 21.8746 34.5469 21.8746 34.5469C21.8746 34.5469 21.1893 38.3528 23.0631 38.3528C23.7477 38.3528 24.4331 37.4706 24.74 37.0185V37.0258C24.74 37.0258 24.7546 36.9967 24.7911 36.9383C24.864 36.829 24.9004 36.7633 24.9004 36.7633V36.7415C25.1775 36.2676 25.7826 35.1812 26.6933 33.3876C27.8745 31.069 29.0038 28.1745 29.0038 28.1745C29.113 28.8108 29.264 29.4392 29.4559 30.0556C29.66 30.7482 30.0902 31.5065 30.4329 32.2429C30.1558 32.622 29.9881 32.8407 29.9881 32.8407C29.9887 32.8463 29.9913 32.8515 29.9954 32.8553C29.7767 33.147 29.5288 33.4605 29.2736 33.7667C28.3411 34.875 27.2321 36.1436 27.0863 36.5082C26.9113 36.9383 26.9551 37.2591 27.2904 37.507C27.5383 37.6966 27.9758 37.7258 28.4344 37.6893C29.2729 37.631 29.8635 37.4268 30.1478 37.2956C30.672 37.1076 31.1675 36.8475 31.6199 36.5227C32.5313 35.852 33.0854 34.8895 33.0343 33.6209C33.0052 32.921 32.7792 32.221 32.5021 31.5648C32.5823 31.4482 32.6698 31.3242 32.75 31.2003C34.1929 29.0931 35.3084 26.7804 35.3084 26.7804C35.4176 27.4167 35.5686 28.0451 35.7605 28.6615C35.9355 29.2521 36.2774 29.901 36.5909 30.5353C35.2355 31.6363 34.3971 32.9122 34.1054 33.7507C33.5659 35.3037 33.9888 36.0036 34.7835 36.164C35.1407 36.2369 35.6511 36.0692 36.0303 35.9088C36.5933 35.7213 37.1242 35.4483 37.6044 35.0995C38.5158 34.4287 39.3973 33.4882 39.3389 32.2123C39.3171 31.6363 39.1567 31.0603 38.9452 30.5061C40.0899 30.0249 41.5766 29.7625 43.4723 29.9812C47.5319 30.4551 48.3266 32.9924 48.1735 34.0496C48.0204 35.1068 47.1674 35.6974 46.883 35.8724C46.5987 36.0474 46.5112 36.113 46.533 36.2442C46.5695 36.4338 46.7007 36.4265 46.9413 36.3828C47.2767 36.3244 49.0696 35.5224 49.1498 33.5611C49.2665 31.0821 46.883 28.3553 42.6608 28.3772L42.6629 28.3786ZM11.3711 38.9288C10.0303 40.3943 8.14919 40.9484 7.34061 40.4818C6.47297 39.9773 6.81565 37.8206 8.47 36.2588C9.47616 35.311 10.7732 34.436 11.6336 33.8965C11.8305 33.7798 12.1148 33.6049 12.4648 33.3934C12.5231 33.357 12.5523 33.3424 12.5523 33.3424C12.6179 33.2986 12.6908 33.2622 12.7637 33.2184C13.3681 35.4349 12.7856 37.3889 11.3711 38.9273V38.9288ZM21.1674 32.2648C20.7008 33.4095 19.7172 36.3259 19.1193 36.1728C18.609 36.0415 18.2954 33.8178 19.0173 31.6304C19.3818 30.5295 20.1547 29.2171 20.614 28.7067C21.3497 27.8828 22.159 27.6203 22.3486 27.9484C22.6037 28.3786 21.459 31.5502 21.1674 32.2648ZM29.2605 36.129C29.0636 36.2311 28.8814 36.2967 28.7939 36.2457C28.7282 36.2092 28.8741 36.0707 28.8741 36.0707C28.8741 36.0707 29.8875 34.9843 30.2885 34.4885C30.5218 34.1969 30.7916 33.8542 31.0825 33.4751C31.0825 33.5115 31.0898 33.548 31.0898 33.5917C31.0803 34.8968 29.827 35.7791 29.2583 36.129H29.2605ZM35.5002 34.7073C35.3544 34.6052 35.3762 34.2625 35.8647 33.198C36.0543 32.7824 36.491 32.0825 37.25 31.4117C37.336 31.6656 37.3827 31.9311 37.3886 32.1991C37.3813 33.8396 36.2074 34.4521 35.5009 34.7073H35.5002Z" fill="#452E82"/>
</svg>
